<?xml version="1.0" encoding="UTF-8" standalone="no"?>
<svg
   xmlns:dc="http://purl.org/dc/elements/1.1/"
   xmlns:cc="http://creativecommons.org/ns#"
   xmlns:rdf="http://www.w3.org/1999/02/22-rdf-syntax-ns#"
   xmlns:svg="http://www.w3.org/2000/svg"
   xmlns="http://www.w3.org/2000/svg"
   xmlns:sodipodi="http://sodipodi.sourceforge.net/DTD/sodipodi-0.dtd"
   xmlns:inkscape="http://www.inkscape.org/namespaces/inkscape"
   id="Capa_3_copia"
   data-name="Capa 3 copia"
   viewBox="0 0 74.999999 61.777649"
   version="1.1"
   sodipodi:docname="CerebroInkscape.svg"
   width="75mm"
   height="61.777649mm"
   inkscape:version="1.1-dev (ddb55ca, 2020-02-02)">
  <metadata
     id="metadata22">
    <rdf:RDF>
      <cc:Work
         rdf:about="">
        <dc:format>image/svg+xml</dc:format>
        <dc:type
           rdf:resource="http://purl.org/dc/dcmitype/StillImage" />
        <dc:title>Lineas negras</dc:title>
      </cc:Work>
    </rdf:RDF>
  </metadata>
  <sodipodi:namedview
     inkscape:document-units="mm"
     borderlayer="true"
     inkscape:current-layer="g63"
     inkscape:window-maximized="1"
     inkscape:window-y="23"
     inkscape:window-x="0"
     inkscape:cy="116.74516"
     inkscape:cx="141.73228"
     inkscape:zoom="3.070791"
     fit-margin-bottom="0"
     fit-margin-right="0"
     fit-margin-left="0"
     fit-margin-top="0"
     units="mm"
     showgrid="true"
     id="namedview20"
     inkscape:window-height="925"
     inkscape:window-width="1680"
     inkscape:pageshadow="2"
     inkscape:pageopacity="0"
     guidetolerance="10"
     gridtolerance="10"
     objecttolerance="10"
     borderopacity="1"
     bordercolor="#666666"
     pagecolor="#ffffff">
    <inkscape:grid
       originy="5.2792293e-06"
       originx="4.7099276e-08"
       spacingx="2.54"
       spacingy="2.54"
       empspacing="1"
       type="xygrid"
       units="mm"
       id="grid36" />
  </sodipodi:namedview>
  <defs
     id="defs12">
    <style
       id="style10">.cls-1{fill:#62aeef;}.cls-2{fill:#020202;}</style>
  </defs>
  <title
     id="title14">Lineas negras</title>
  <g
     style="display:none"
     inkscape:label="[fixed] BG"
     inkscape:groupmode="layer"
     sodipodi:insensitive="true"
     id="g47">
    <rect
       x="0"
       y="0"
       width="100"
       height="100"
       style="fill:#ffffff;fill-opacity:1;stroke:none"
       id="rect45" />
  </g>
  <g
     inkscape:label="F.Cu"
     inkscape:groupmode="layer"
     id="g49" />
  <g
     inkscape:label="B.Cu-disabled"
     inkscape:groupmode="layer"
     id="g51" />
  <g
     inkscape:label="B.Adhes-disabled"
     inkscape:groupmode="layer"
     id="g53" />
  <g
     inkscape:label="F.Adhes-disabled"
     inkscape:groupmode="layer"
     id="g55" />
  <g
     inkscape:label="B.Paste-disabled"
     inkscape:groupmode="layer"
     id="g57" />
  <g
     inkscape:label="F.Paste-disabled"
     inkscape:groupmode="layer"
     id="g59" />
  <g
     inkscape:label="B.SilkS-disabled"
     inkscape:groupmode="layer"
     id="g61" />
  <g
     inkscape:label="B.Mask-disabled"
     inkscape:groupmode="layer"
     id="g65" />
  <g
     inkscape:label="F.Mask-disabled"
     inkscape:groupmode="layer"
     id="g67" />
  <g
     inkscape:label="Dwgs.User-disabled"
     inkscape:groupmode="layer"
     id="g69" />
  <g
     inkscape:label="Cmts.User-disabled"
     inkscape:groupmode="layer"
     id="g71" />
  <g
     inkscape:label="Eco1.User-disabled"
     inkscape:groupmode="layer"
     id="g73" />
  <g
     inkscape:label="Eco2.User-disabled"
     inkscape:groupmode="layer"
     id="g75" />
  <g
     inkscape:label="Margin-disabled"
     inkscape:groupmode="layer"
     id="g79" />
  <g
     inkscape:label="B.CrtYd-disabled"
     inkscape:groupmode="layer"
     id="g81" />
  <g
     inkscape:label="F.CrtYd-disabled"
     inkscape:groupmode="layer"
     id="g83" />
  <g
     inkscape:label="B.Fab-disabled"
     inkscape:groupmode="layer"
     id="g85" />
  <g
     inkscape:label="F.Fab-disabled"
     inkscape:groupmode="layer"
     id="g87" />
  <g
     inkscape:label="Drill"
     inkscape:groupmode="layer"
     id="g89" />
  <g
     style="display:inline"
     inkscape:label="Edge.Cuts"
     inkscape:groupmode="layer"
     id="g77">
    <path
       style="stroke-width:0.032674"
       inkscape:connector-curvature="0"
       d="m 17.742396,38.882853 -0.0232,0.03266 C 5.3432385,40.313356 -0.51309137,32.139398 0.03519416,23.768402 0.44069012,17.570944 4.8514795,12.183174 10.18011,9.8139143 13.768799,3.0635977 21.802258,0.01535338 28.965587,2.6855485 a 17.572254,17.572254 0 0 1 21.210285,1.9330502 h 0.06961 c 9.237195,0 17.006311,6.1631463 19.265137,14.5240123 C 72.91272,22.64863 75,27.391728 75,32.613821 c 0,4.128817 -1.361553,8.885967 -4.199379,12.001838 l -0.335242,3.666781 c -0.648278,3.982748 -2.201649,6.531718 -5.961232,9.760666 -3.759564,3.228928 -10.171693,2.963946 -10.712465,2.90284 -5.162649,2.221904 -11.146734,-0.161421 -13.368306,-5.322739 -0.01212,-0.02812 -0.02425,-0.05654 -0.03594,-0.08463 l -0.926325,-2.810042 c -2.457166,0 -5.049916,-1.15115 -6.79639,-2.753519 A 11.762978,11.762978 0 0 1 21.471587,47.328348 c -1.706285,-2.037624 -2.032381,-4.772837 -1.305036,-6.853913 l -1.137414,-0.926324 z"
       class="cls-1"
       id="relleno" />
  </g>
  <g
     style="display:inline"
     inkscape:label="F.SilkS"
     inkscape:groupmode="layer"
     id="g63">
    <path
       style="stroke-width:0.032674"
       inkscape:connector-curvature="0"
       d="m 35.206503,44.287607 c 1.917031,0 3.93733,-1.092642 6.020352,-3.261939 5.404426,-5.638053 14.481529,-1.939573 14.568459,-1.906256 a 1.2416478,1.2416478 0 0 0 0.198325,0.06534 c 5.213614,1.335755 8.415431,0.02064 10.183795,-1.318101 1.909864,-1.446518 3.082223,-3.663175 3.136798,-5.927568 0.07384,-3.133522 -2.067335,-5.502779 -3.195611,-6.529748 C 66.760698,19.379503 64.391416,16.291394 62.235865,14.752079 59.033722,12.461566 54.495495,12.317141 50.948964,13.328431 49.938965,11.452235 47.494556,7.6929844 43.457584,6.1654296 38.384789,4.2474122 33.771414,5.3920153 31.148275,9.1388501 29.161639,8.6944697 24.831552,8.0795278 21.231101,10.043946 c -2.30195,1.255698 -3.888645,3.319775 -4.730352,6.135046 a 7.525365,7.525365 0 0 0 -3.675931,-0.376089 c -5.2720999,0.787141 -7.5266712,5.113629 -7.0293583,8.98561 0.490123,3.79749 3.7095858,7.594958 9.6217893,6.956813 a 1.4175469,1.4175469 0 1 0 -0.302896,-2.818861 h -0.002 c -4.037312,0.436209 -6.1755605,-1.945148 -6.5023093,-4.500646 -0.3120457,-2.420885 1.0060601,-5.272752 4.6310183,-5.81385 5.538728,-0.828965 10.006047,8.736633 11.643388,13.539837 -1.944811,0.701214 -5.398881,2.500949 -7.143722,6.731047 l 1.289355,0.667551 1.137413,0.926324 c 1.720663,-4.933914 6.433366,-5.898141 6.626799,-5.935084 a 1.3893383,1.3893383 0 0 0 1.16063,-1.356006 c 0.0056,-0.14279 0.169576,-3.511251 3.931123,-4.988813 3.688016,-1.449445 6.012181,0.377076 6.177847,0.51333 a 1.3618914,1.3618914 0 0 0 2.084006,-0.242779 c 0.134947,-0.170557 1.699085,-2.037603 5.712878,-2.037603 4.208536,0 6.507555,2.741438 6.607526,2.862973 a 1.4174389,1.4174389 0 0 0 2.209165,-1.776532 c -0.124178,-0.155528 -3.008384,-3.684425 -8.287017,-3.909555 -0.10294,-1.389337 -0.0092,-5.038801 3.519729,-6.844745 2.938781,-1.505335 7.738423,-1.80529 10.684718,0.298322 2.336904,1.666421 3.220431,4.609781 2.625107,8.737932 a 1.4161318,1.4161318 0 0 0 0.56854,1.349467 c 0.02777,0.02033 2.761034,2.082059 2.69829,4.723505 -0.03268,1.409924 -0.786483,2.805451 -2.013746,3.735381 -1.261584,0.955094 -3.612228,1.872942 -7.678627,0.855104 a 21.980104,21.980104 0 0 0 -6.101052,-1.35699 c -4.709767,-0.354836 -8.691532,1.018821 -11.51564,3.959546 -1.679161,1.750734 -3.184489,2.56564 -4.353271,2.356525 -1.437711,-0.257466 -2.221898,-2.01473 -2.247068,-2.061787 a 1.4180923,1.4180923 0 0 0 -2.611055,1.104742 c 0.0549,0.130692 1.372345,3.193649 4.329106,3.741934 a 4.9597289,4.9597289 0 0 0 0.911642,0.08333 z m 8.336018,-20.507116 c -2.319905,0.3921 -3.848456,1.31974 -4.733927,2.050352 -1.463512,-0.784199 -4.274554,-1.722622 -7.958965,-0.277738 -2.053616,0.806737 -3.370757,2.019318 -4.215068,3.241687 A 42.68131,42.68131 0 0 0 24.193084,23.76938 c -1.746802,-3.0306 -3.50112,-4.987828 -5.159048,-6.212159 a 1.5030471,1.5030471 0 0 0 0.0928,-0.24833 c 0.60481,-2.267312 1.734712,-3.827216 3.454719,-4.77054 3.6609,-2.006567 8.736619,-0.430329 8.786301,-0.414318 a 1.4171121,1.4171121 0 0 0 1.675559,-0.665261 c 1.772947,-3.2129272 5.293334,-4.200365 9.413977,-2.6404639 2.981579,1.1279388 4.944378,3.9928779 5.844575,5.5897019 -4.186643,2.332011 -4.961702,6.709473 -4.7542,9.372481 z"
       class="cls-2"
       id="path9" />
    <path
       style="stroke-width:0.032674"
       inkscape:connector-curvature="0"
       d="m 67.134169,46.557857 c -4.161479,1.369092 -8.070715,1.082856 -11.621512,-0.849532 a 1.3997944,1.3997944 0 0 0 -1.204058,-0.0928 c -0.473136,0.193759 -0.627044,0.526395 -0.84073,0.949524 -0.594688,1.17173 -1.786015,2.097746 -2.866904,2.793391 -2.986819,1.922906 -6.620591,2.798283 -10.09656,3.300168 a 7.3302953,7.3302953 0 0 1 -1.042984,0.07319 l 0.926345,2.810041 c 5.094025,-0.677013 9.148977,-2.02583 12.085158,-4.022598 1.446847,-0.984505 2.35259,-1.957884 2.908065,-2.709088 3.93014,1.74844 8.303687,1.89514 12.73637,0.413998 a 22.726727,22.726727 0 0 0 2.349966,-0.938426 l 0.337203,-3.669729 c -0.849531,0.933858 -2.494396,1.558918 -3.669707,1.945145 z"
       class="cls-2"
       id="path11" />
  </g>
</svg>
