<svg id="Capa_3_copia" data-name="Capa 3 copia" xmlns="http://www.w3.org/2000/svg" viewBox="0 0 2295.38 1890.67"><defs><style>.cls-1{fill:#62aeef;}.cls-2{fill:#020202;}</style></defs><title>Lineas negras</title><path id="relleno" class="cls-1" d="M543,1190l-.71,1C163.53,1233.78-15.7,983.62,1.08,727.43c12.41-189.67,147.4-354.56,310.48-427.07C421.39,93.77,667.25.48,886.48,82.2a537.79,537.79,0,0,1,649.13,59.16h2.13c282.7,0,520.47,188.62,589.6,444.5,104.12,107.3,168,252.46,168,412.28,0,126.36-41.67,271.95-128.52,367.31l-10.26,112.22c-19.84,121.89-67.38,199.9-182.44,298.72s-311.3,90.71-327.85,88.84c-158,68-341.14-4.94-409.13-162.9-.37-.86-.74-1.73-1.1-2.59l-28.35-86c-75.2,0-154.55-35.23-208-84.27a360,360,0,0,1-342.56-81c-52.22-62.36-62.2-146.07-39.94-209.76l-34.81-28.35Z" transform="translate(0 -0.01)"/><path id="path9" class="cls-2" d="M1077.48,1355.41c58.67,0,120.5-33.44,184.25-99.83,165.4-172.55,443.2-59.36,445.86-58.34a38,38,0,0,0,6.07,2c159.56,40.88,257.55.63,311.67-40.34,58.45-44.27,94.33-112.11,96-181.41,2.26-95.9-63.27-168.41-97.8-199.84,19.65-184.54-52.86-279.05-118.83-326.16-98-70.1-236.89-74.52-345.43-43.57C1528.36,350.5,1453.55,235.45,1330,188.7c-155.25-58.7-296.44-23.67-376.72,91-60.8-13.6-193.32-32.42-303.51,27.7C579.32,345.83,530.76,409,505,495.16a230.31,230.31,0,0,0-112.5-11.51c-161.35,24.09-230.35,156.5-215.13,275,15,116.22,113.53,232.44,294.47,212.91a43.38,43.38,0,1,0-9.27-86.27h-.06c-123.56,13.35-189-59.53-199-137.74-9.55-74.09,30.79-161.37,141.73-177.93C574.75,544.25,711.47,837,761.58,984c-59.52,21.46-165.23,76.54-218.63,206l39.46,20.43,34.81,28.35c52.66-151,196.89-180.51,202.81-181.64a42.52,42.52,0,0,0,35.52-41.5c.17-4.37,5.19-107.46,120.31-152.68,112.87-44.36,184,11.54,189.07,15.71a41.68,41.68,0,0,0,63.78-7.43c4.13-5.22,52-62.36,174.84-62.36,128.8,0,199.16,83.9,202.22,87.62a43.38,43.38,0,0,0,67.61-54.37c-3.8-4.76-92.07-112.76-253.62-119.65-3.15-42.52-.28-154.21,107.72-209.48,89.94-46.07,236.83-55.25,327,9.13,71.52,51,98.56,141.08,80.34,267.42a43.34,43.34,0,0,0,17.4,41.3c.85.62,84.5,63.72,82.58,144.56-1,43.15-24.07,85.86-61.63,114.32-38.61,29.23-110.55,57.32-235,26.17a672.69,672.69,0,0,0-186.72-41.53c-144.14-10.86-266,31.18-352.43,121.18-51.39,53.58-97.46,78.52-133.23,72.12-44-7.88-68-61.66-68.77-63.1a43.4,43.4,0,0,0-79.91,33.81c1.68,4,42,97.74,132.49,114.52a151.79,151.79,0,0,0,27.9,2.55ZM1332.6,727.8c-71,12-117.78,40.39-144.88,62.75-44.79-24-130.82-52.72-243.58-8.5-62.85,24.69-103.16,61.8-129,99.21a1306.24,1306.24,0,0,0-74.72-153.8c-53.46-92.75-107.15-152.65-157.89-190.12a46,46,0,0,0,2.84-7.6c18.51-69.39,53.09-117.13,105.73-146C803.14,322.33,958.48,370.57,960,371.06a43.37,43.37,0,0,0,51.28-20.36c54.26-98.33,162-128.55,288.11-80.81,91.25,34.52,151.32,122.2,178.87,171.07-128.13,71.37-151.85,205.34-145.5,286.84Z" transform="translate(0 -0.01)"/><path id="path11" class="cls-2" d="M2054.61,1424.89c-127.36,41.9-247,33.14-355.67-26a42.84,42.84,0,0,0-36.85-2.84c-14.48,5.93-19.19,16.11-25.73,29.06-18.2,35.86-54.66,64.2-87.74,85.49-91.41,58.85-202.62,85.64-309,101a224.34,224.34,0,0,1-31.92,2.24l28.35,86c155.9-20.72,280-62,369.86-123.11,44.28-30.13,72-59.92,89-82.91,120.28,53.51,254.13,58,389.79,12.67a695.54,695.54,0,0,0,71.92-28.72l10.32-112.31c-26,28.58-76.34,47.71-112.31,59.53Z" transform="translate(0 -0.01)"/></svg>